<?xml version="1.0" encoding="utf-8"?>
<!DOCTYPE svg PUBLIC "-//W3C//DTD SVG 1.1//EN"
  "http://www.w3.org/Graphics/SVG/1.1/DTD/svg11.dtd">
<svg version="1.1" id="Layer_1" xmlns="http://www.w3.org/2000/svg"
 xmlns:xlink="http://www.w3.org/1999/xlink"
 x="0px" y="0px" width="20px" height="20px" xml:space="preserve">
<g xmlns="http://www.w3.org/2000/svg" id="columnGroup">
<svg version="1.1" xmlns="http://www.w3.org/2000/svg"
 x="0" y="0" width="19" height="20" viewBox="0 0 424.879 463.582" xml:space="preserve">
<polygon points="424.807,463.582 0.19,463.582 0,-0.225 424.879,-0.225 "/>
<path fill="#FFFF00" d="M387.348,37.062L37.057,37.018l-0.116,222.979h60.557c49.849,0.935,45.194,34.814,49.571,65.675
  c4.456,31.379,34.468,46.76,59.641,46.76c32.953,0,59.046-28.257,59.046-61.951c0-25.963-11.911-44.657-63.168-66.515
  c-58.128-24.602-72.77-59.226-72.77-92.935c0-55.127,42.109-92.024,91.079-92.024c25.641,0,53.601,8.185,72.524,29.534
  c15.329,17.285,20.849,34.666,20.241,56.166c-0.275,9.426-1.374,21.486,17.714,21.753l55.971,0.131V37.062z"/>
<path fill="#FF0000" d="M387.791,197.833l-52.795-0.221c0,0-55.858,4.346-52.706-38.485c1.514-20.632-4.568-36.385-8.854-43.01
  c-11.133-17.205-29.703-25.805-52.119-25.805c-32.959,0-57.178,27.461-57.178,56.166c0,25.051,12.166,53.02,63.873,73.067
  c44.864,17.308,72.748,47.447,72.748,89.358c0,44.179-33.549,95.72-93.963,95.72c-31.125,0-59.284-7.412-80.861-38.289
  c-10.965-15.672-15.176-35.928-15.938-56.166c-0.581-15.52-4.689-18.974-15.359-18.974l-57.567,0.19l0.038,134.242h350.523V199.733
  L387.791,197.833z"/>
<path d="M384.501,199.988 M388.87,200.116l-51.364-0.003c-0.364,0.022-2.746-0.035-4.699-0.035l0,0
  c-6.149-0.018-18.862-0.631-30.446-5.676l0,0c-11.566-4.92-22.218-15.128-22.124-32.89l0,0c0-1.177,0.048-2.379,0.136-3.608l0,0
  c0.163-2.309,0.247-4.502,0.247-6.584l0,0c-0.014-16.053-4.575-25.763-8.109-31.267l0,0c-13.964-21.483-31.241-27.7-51.953-27.463
  c-15.976,0.184-30.054,7.766-39.475,18l0,0c-9.408,10.233-14.907,23.936-14.896,37.508l0,0c0.014,12.042,3.024,24.252,12.252,36.075
  l0,0c9.241,11.816,24.887,23.295,50.414,33.192l0,0c45.533,17.453,73.333,49.172,73.266,92.452l0,0
  c-0.008,22.765-8.019,46.835-23.879,65.354l0,0c-15.838,18.521-39.678,31.369-70.69,31.344l0,0c-0.182,0-0.362,0.002-0.544,0.002
  l0,0c-31.303-0.002-60.706-7.923-82.696-39.527l0,0c-11.415-16.309-14.679-34.253-15.443-54.699l0,0
  c-0.264-7.466-1.741-12.382-3.908-15.159l0,0c-2.162-2.739-4.98-3.994-9.776-4.047h-0.759H36.493v-36.043l64.045,0.054
  c11.989,0.2,19.862,2.846,27.063,6.951l0,0c7.21,4.097,11.901,9.976,14.888,16.627l0,0c5.951,13.33,5.767,29.693,7.958,44.846l0,0
  c2.123,14.831,10.171,25.756,20.83,33.17l0,0c10.65,7.395,23.936,11.106,35.939,11.095l0,0c15.631-0.001,29.616-6.687,39.765-17.429
  l0,0c10.143-10.746,16.377-25.525,16.377-41.619l0,0c-0.041-12.565-2.766-22.746-11.641-32.878l0,0
  c-8.896-10.124-24.323-20.127-49.759-30.963l0,0c-29.424-12.447-48.135-27.575-59.446-44.085l0,0
  c-11.313-16.501-15.103-34.263-15.092-51.524l0,0c-0.011-28.306,10.85-52.127,28.058-68.769l0,0
  c17.204-16.654,40.711-26.158,65.925-26.158l0,0c26.206-0.013,53.583,8.187,73.194,30.304l0,0
  c15.083,16.974,21.544,35.953,21.514,56.848l0,0c0,0.992-0.011,1.99-0.038,3.013l0,0c-0.035,1.031-0.062,2.07-0.062,3.09l0,0
  c-0.016,4.074,0.509,7.546,2.384,9.817l0,0c1.828,2.263,5.458,4.247,13.483,4.379h3.04l54.142,0.019v36.287H388.87z"/>
</svg>
</g>
</svg>
